<svg xmlns="http://www.w3.org/2000/svg" class="d-none">

  <symbol id="reload" viewBox="0 0 512 512"><style>.reloadicon{fill:#4B4B4B;}</style>
    <g>
        <path class="reloadicon" d="M403.925,108.102c-27.595-27.595-62.899-47.558-102.459-56.29L304.182,0L201.946,53.867l-27.306,14.454
            l-5.066,2.654l8.076,4.331l38.16,20.542l81.029,43.602l2.277-42.859c28.265,7.546,53.438,22.53,73.623,42.638
            c29.94,29.939,48.358,71.119,48.358,116.776c0,23.407-4.843,45.58-13.575,65.687l40.37,17.532
            c11.076-25.463,17.242-53.637,17.242-83.219C465.212,198.306,441.727,145.904,403.925,108.102z"  stroke="#4B4B4B" stroke-width="6"></path>
        <path class="reloadicon" d="M296.256,416.151l-81.101-43.612l-2.272,42.869c-28.26-7.555-53.51-22.53-73.618-42.636
            c-29.945-29.95-48.364-71.12-48.364-116.767c0-23.427,4.844-45.522,13.576-65.697l-40.37-17.531
            c-11.076,25.53-17.242,53.723-17.242,83.228c0,57.679,23.407,110.157,61.21,147.893c27.595,27.594,62.899,47.548,102.453,56.202
            l-2.716,51.9l102.169-53.878l27.455-14.454l4.988-2.643l-7.999-4.332L296.256,416.151z"  stroke="#4B4B4B" stroke-width="6"></path>
    </g>
  </symbol>

  <symbol id="edit" viewBox="0 0 24 24">
    <g>
        <path class="editIcon" d="M 19.171875 2 C 18.448125 2 17.724375 2.275625 17.171875 2.828125 L 16 4 L 20 8 L 21.171875 6.828125 
        C 22.275875 5.724125 22.275875 3.933125 21.171875 2.828125 C 20.619375 2.275625 19.895625 2 19.171875 2 z M 14.5 5.5 L 3 17 
        L 3 21 L 7 21 L 18.5 9.5 L 14.5 5.5 z"></path>
    </g>
  </symbol>

  <symbol id="plus" viewBox="0 0 512 512">
    <g>
        <path class="plusIcon" d="M359.244,224.004h-59.988c-6.217,0-11.258-5.043-11.258-11.258v-59.992c0-6.215-5.039-11.254-11.256-11.254
            h-41.486c-6.217,0-11.258,5.039-11.258,11.254v59.992c0,6.215-5.039,11.258-11.256,11.258h-59.988
            c-6.219,0-11.258,5.039-11.258,11.258v41.484c0,6.215,5.039,11.258,11.258,11.258h59.988c6.217,0,11.256,5.039,11.256,11.258
            v59.984c0,6.219,5.041,11.258,11.258,11.258h41.486c6.217,0,11.256-5.039,11.256-11.258v-59.984
            c0-6.219,5.041-11.258,11.258-11.258h59.988c6.217,0,11.258-5.043,11.258-11.258v-41.484
            C370.502,229.043,365.461,224.004,359.244,224.004z"></path>
        <path class="plusIcon" d="M256,0C114.613,0,0,114.617,0,256c0,141.387,114.613,256,256,256c141.383,0,256-114.613,256-256
            C512,114.617,397.383,0,256,0z M256,448c-105.871,0-192-86.129-192-192c0-105.867,86.129-192,192-192c105.867,0,192,86.133,192,192
            C448,361.871,361.867,448,256,448z"></path>
    </g>
  </symbol>

  <symbol id="back" viewBox="0 0 512 512">
    <g>
        <path class="backIcon" d="M452.421,155.539c-36.6-36.713-87.877-59.612-143.839-59.579h-87.179V9.203L5.513,228.805h215.889h87.179
            c19.702,0.033,36.924,7.8,49.898,20.659c12.876,12.99,20.644,30.212,20.676,49.914c-0.032,19.703-7.8,36.924-20.676,49.898
            c-12.974,12.876-30.196,20.642-49.898,20.676H0v132.844h308.582c55.962,0.033,107.239-22.866,143.839-59.579
            c36.715-36.6,59.612-87.877,59.579-143.84C512.033,243.416,489.136,192.14,452.421,155.539z"></path>
    </g>
  </symbol>

  <symbol id="enter" viewBox="0 0 26 26">
    <g>
        <path class="enterIcon" d="M 22.566406 4.730469 L 20.773438 3.511719 C 20.277344 3.175781 19.597656 3.304688 19.265625 3.796875 
            L 10.476563 16.757813 L 6.4375 12.71875 C 6.015625 12.296875 5.328125 12.296875 4.90625 12.71875 L 3.371094 14.253906 C 
            2.949219 14.675781 2.949219 15.363281 3.371094 15.789063 L 9.582031 22 C 9.929688 22.347656 10.476563 22.613281 10.96875 
            22.613281 C 11.460938 22.613281 11.957031 22.304688 12.277344 21.839844 L 22.855469 6.234375 C 23.191406 5.742188 23.0625 
            5.066406 22.566406 4.730469 Z"/>
    </g>
  </symbol>

</svg>