<?xml version="1.0" encoding="UTF-8" standalone="no"?>
<svg
   viewBox="160 0 462.32361 129.39412"
   version="1.1"
   id="svg1"
   sodipodi:docname="app_logo.svg"
   width="462.32361"
   height="129.39412"
   inkscape:version="1.4 (86a8ad7, 2024-10-11)"
   xmlns:inkscape="http://www.inkscape.org/namespaces/inkscape"
   xmlns:sodipodi="http://sodipodi.sourceforge.net/DTD/sodipodi-0.dtd"
   xmlns="http://www.w3.org/2000/svg"
   xmlns:svg="http://www.w3.org/2000/svg">
  <defs
     id="defs1" />
  <sodipodi:namedview
     id="namedview1"
     pagecolor="#505050"
     bordercolor="#ffffff"
     borderopacity="1"
     inkscape:showpageshadow="0"
     inkscape:pageopacity="0"
     inkscape:pagecheckerboard="1"
     inkscape:deskcolor="#505050"
     inkscape:zoom="1.8375"
     inkscape:cx="221.4966"
     inkscape:cy="-111.83673"
     inkscape:window-width="1920"
     inkscape:window-height="974"
     inkscape:window-x="-11"
     inkscape:window-y="-11"
     inkscape:window-maximized="1"
     inkscape:current-layer="svg1" />
  <style
     id="style1">
    @font-face {
        font-family: 'Anton';
        src: url(https://kai-kon.com/files/dev/database/fonts/Anton/Anton-Regular.ttf) format('truetype');
    }
  </style>
  <g
     transform="translate(158.58461,-1.0347916)"
     id="g1">
    <path
       style="fill:#494949;fill-opacity:1"
       d="M 56.016922,130.11362 C 35.364074,128.2669 15.706941,115.30825 6.8830986,97.722919 0.8111276,85.621889 -0.3035751,69.749871 4.0411272,57.256682 8.331818,44.918802 16.076899,34.991821 27.146782,27.641832 c 3.041718,-2.019587 5.530397,-4.301193 5.530397,-5.070235 0,-2.584707 3.799341,-8.788507 7.665266,-12.51632 11.196279,-10.79628866 30.037443,-12.0771787 42.528392,-2.8912317 4.731911,3.4798857 9.108333,9.2582557 10.670703,14.0889697 0.789069,2.439731 2.498088,4.36237 5.64156,6.346725 15.64574,9.876571 25.62733,27.619969 25.68442,45.656954 0.0488,15.406585 -5.15194,27.882476 -16.25197,38.986576 -13.412034,13.41697 -31.953399,19.71638 -52.598628,17.87035 z m 18.905979,-9.32484 C 95.962935,116.3301 112.37763,100.11319 115.82131,80.383143 118.22268,66.62486 112.56255,51.033899 101.38616,40.62122 90.483613,30.463653 89.707369,30.253015 63.177179,30.253015 c -26.53019,0 -27.306434,0.210638 -38.208991,10.368205 C 13.812586,51.014542 8.22683,66.284653 10.519496,80.120457 15.190867,108.31128 44.99435,127.13106 74.922901,120.78878 Z M 42.918119,109.78506 c -8.850747,-4.12058 -14.285861,-8.41396 -16.27454,-12.855831 -1.006566,-2.24824 -1.609225,-4.44512 -1.339243,-4.88196 0.800117,-1.29461 9.520843,-0.90672 15.679545,0.69741 7.382508,1.9229 15.128633,5.86408 17.123686,8.712431 2.086775,2.97928 2.079119,9.38642 -0.01217,10.18892 -3.402151,1.30553 -10.154096,0.47763 -15.177273,-1.86097 z m 24.367738,1.20735 c -2.446821,-1.83607 -1.554022,-7.50368 1.656632,-10.51653 4.608483,-4.324581 14.951485,-8.225071 23.573616,-8.889961 7.570375,-0.58379 8.160795,-0.49195 8.157335,1.26888 -0.005,2.79843 -3.35973,7.811901 -7.161122,10.703541 -9.18986,6.99051 -21.98445,10.61723 -26.226461,7.43407 z M 32.177179,82.849976 C 22.480665,80.8992 20.58439,79.326744 19.294257,72.167012 c -0.741521,-4.115155 1.554201,-17.418741 3.726511,-21.594929 2.242671,-4.311455 6.199981,-7.59871 8.33271,-6.921808 1.015548,0.322323 3.376562,3.177298 5.246697,6.34439 1.870136,3.167092 5.963151,9.358349 9.09559,13.758349 7.876118,11.063241 8.423018,12.23537 7.082059,15.178454 -1.306557,2.86758 -6.709661,5.361149 -11.318526,5.223576 -1.805166,-0.05388 -5.982119,-0.641164 -9.282119,-1.305068 z m 44.839286,-0.531703 c -4.14339,-2.526459 -4.976984,-5.348225 -2.665358,-9.022398 5.041166,-8.012591 19.585524,-29.085177 20.438542,-29.612371 1.466788,-0.906525 5.401511,2.044794 7.690541,5.768444 2.72008,4.424846 5.38846,17.751456 4.5741,22.844223 -1.01956,6.375972 -3.42733,8.58051 -11.336124,10.379329 -9.255985,2.105229 -14.838141,1.998603 -18.701701,-0.357227 z M 58.20675,61.971336 c -2.183736,-1.236828 -4.979524,-3.746174 -6.212862,-5.576325 -2.9997,-4.451253 -6.316709,-13.502029 -6.316709,-17.23574 0,-2.635362 0.603215,-3.289483 4.75,-5.150856 6.693674,-3.004597 19.806326,-3.004597 26.5,0 4.399535,1.974825 4.75,2.399293 4.75,5.752987 0,4.184239 -3.251459,12.530216 -6.720652,17.250843 -2.31577,3.151132 -8.847333,7.258017 -11.48951,7.224319 -0.709411,-0.009 -3.076531,-1.028401 -5.260267,-2.265228 z"
       id="path1" />
  </g>
  <text
     class="text"
     x="466.87439"
     y="100.96385"
     fill="#494949"
     font-family="Anton"
     font-size="80px"
     text-anchor="middle"
     id="text1">KAIKON-DB</text>
</svg>
