<!-- article_symbols.svg -->
<svg xmlns="http://www.w3.org/2000/svg" class="d-none">

  <symbol id="trashbox" viewBox="0 0 512 512"><style>.trashbox{fill:#4B4B4B;}</style>
    <g>
      <path class="trashbox" d="M88.594,464.731C90.958,491.486,113.368,512,140.234,512h231.523c26.858,0,49.276-20.514,51.641-47.269
        l25.642-335.928H62.952L88.594,464.731z M420.847,154.93l-23.474,307.496c-1.182,13.37-12.195,23.448-25.616,23.448H140.234
        c-13.42,0-24.434-10.078-25.591-23.132L91.145,154.93H420.847z"></path>
      <path class="trashbox" d="M182.954,435.339c5.877-0.349,10.35-5.4,9.992-11.269l-10.137-202.234c-0.358-5.876-5.401-10.349-11.278-9.992
        c-5.877,0.357-10.35,5.409-9.993,11.277l10.137,202.234C172.033,431.231,177.085,435.696,182.954,435.339z"></path>
      <path class="trashbox" d="M256,435.364c5.885,0,10.656-4.763,10.656-10.648V222.474c0-5.885-4.771-10.648-10.656-10.648
        c-5.885,0-10.657,4.763-10.657,10.648v202.242C245.344,430.601,250.115,435.364,256,435.364z"></path>
      <path class="trashbox" d="M329.046,435.339c5.878,0.357,10.921-4.108,11.278-9.984l10.129-202.234c0.348-5.868-4.116-10.92-9.993-11.277
        c-5.877-0.357-10.92,4.116-11.277,9.992L319.054,424.07C318.697,429.938,323.17,434.99,329.046,435.339z"></path>
      <path class="trashbox" d="M439.115,64.517c0,0-34.078-5.664-43.34-8.479c-8.301-2.526-80.795-13.566-80.795-13.566l-2.722-19.297
        C310.388,9.857,299.484,0,286.642,0h-30.651H225.34c-12.825,0-23.728,9.857-25.616,23.175l-2.721,19.297
        c0,0-72.469,11.039-80.778,13.566c-9.261,2.815-43.357,8.479-43.357,8.479C62.544,67.365,55.332,77.172,55.332,88.38v21.926h200.66
        h200.676V88.38C456.668,77.172,449.456,67.365,439.115,64.517z M276.318,38.824h-40.636c-3.606,0-6.532-2.925-6.532-6.532
        s2.926-6.532,6.532-6.532h40.636c3.606,0,6.532,2.925,6.532,6.532S279.924,38.824,276.318,38.824z"></path>
    </g>
  </symbol>

  <symbol id="x" viewBox="0 0 512 512"><style>.x{fill:#4B4B4B;}</style>
    <g>
      <polygon class="x" points="512,89.75 422.256,0.005 256.004,166.256 89.754,0.005 0,89.75 166.255,256 0,422.25 89.754,511.995 
        256.004,345.745 422.26,511.995 512,422.25 345.744,256"></polygon>
    </g>
  </symbol>

  <symbol id="upload" viewBox="0 0 512 512"><style>.uploadicon{fill:#4B4B4B;}</style>
    <g>
      <path class="uploadicon" d="M427.258,244.249c0.204-2.604,0.338-5.228,0.338-7.885c0-55.233-44.775-100.008-100.008-100.008
        c-17.021,0-33.042,4.264-47.072,11.764c-15.136-42.633-55.81-73.172-103.633-73.172c-60.729,0-109.96,49.231-109.96,109.96
        c0,11.416,1.741,22.425,4.97,32.778C29.804,234.254,0,275.238,0,323.21c0,62.627,50.769,113.396,113.396,113.396h292.642
        c3.021,0.284,6.079,0.445,9.175,0.445c53.454,0,96.788-43.333,96.788-96.788C512,290.891,475.024,250.183,427.258,244.249z
        M311.709,296.227h-20.452c-6.044,0-10.989,4.945-10.989,10.99v58.074c0,6.044-4.946,10.99-10.989,10.99h-26.558
        c-6.044,0-10.989-4.946-10.989-10.99v-58.074c0-6.044-4.945-10.99-10.989-10.99h-20.452c-6.044,0-8-3.94-4.347-8.755l53.414-70.405
        c3.652-4.816,9.631-4.816,13.284,0l53.414,70.405C319.709,292.288,317.753,296.227,311.709,296.227z"></path>
    </g>
  </symbol>

  <symbol id="edit" viewBox="0 0 512 512">
    <g>
      <path class="st0" d="M500.11,71.074l-59.202-59.181c-15.856-15.848-41.53-15.862-57.386-0.014l-38.378,38.378L57.252,338.185
        c-7.775,7.775-13.721,17.158-17.44,27.498L1.799,471.479c-3.957,11.032-1.206,23.36,7.092,31.656
        c8.288,8.288,20.627,11.046,31.662,7.075l105.774-38.024c10.339-3.714,19.729-9.674,27.501-17.435l277.883-277.893l0.006,0.014
        l10.028-10.048l38.364-38.37l0.014-0.021C515.91,112.598,515.965,86.943,500.11,71.074z M77.321,358.254L363.814,71.732
        l33.208,33.208L107.66,394.296l-33.035-33.028C75.491,360.236,76.364,359.209,77.321,358.254z M136.734,445.472L69.33,469.699
        l-27.019-27.02l24.223-67.392c0.17-0.492,0.412-0.957,0.602-1.442l71.028,71.024C137.68,445.064,137.218,445.299,136.734,445.472z
        M153.757,434.682c-0.956,0.95-1.982,1.83-3.014,2.696l-33.045-33.042l289.359-289.362l33.194,33.201L153.757,434.682z
        M480.034,108.384l-28.322,28.336l-1.42,1.421l-76.443-76.442l29.743-29.75c4.768-4.733,12.474-4.74,17.248,0.014l59.195,59.174
        c4.761,4.754,4.767,12.46-0.021,17.269L480.034,108.384z"></path>
    </g>
  </symbol>

</svg>