<!-- symbols.svg -->
<svg xmlns="http://www.w3.org/2000/svg" style="display: none;">

  <symbol id="people-circle" viewBox="0 0 106 106">
    <circle cx="52" cy="52" r="50" fill="#758492" stroke="none" stroke-width="2"></circle>
    <circle cx="52" cy="32" r="22" fill="#C0CDDC"></circle>
    <path d="M 10.6 80 L 93.4 80 A 5 2.8 0 0 0 10.6 80" style="stroke: none; fill: #C0CDDC;"></path>
    <path d="M 10.6 79.8 L 93.4 79.8 A 50 50.6 0 0 1 10.6 79.8" style="stroke: none; fill: #C0CDDC;"></path>
  </symbol>

  <symbol id="aperture" fill="none" stroke="currentColor" stroke-linecap="round" stroke-linejoin="round" stroke-width="2" viewBox="0 0 522 552">
    <g transform="translate(-1416 -1210)">
      <path d="M1436 1520C1436 1397.39 1543.9 1298 1677 1298 1810.1 1298 1918 1397.39 1918 1520 1918 1642.61 1810.1 1742 1677 1742 1543.9 
      1742 1436 1642.61 1436 1520Z" fill="#444444" stroke-width="40.1042" stroke-miterlimit="8" fill-rule="evenodd"></path>
      <path d="M1546.5 1333.86C1546.59 1267.31 1605.31 1213.42 1677.66 1213.5 1749.94 1213.58 1808.5 1267.51 1808.5 1334Z" fill="#eeeeee" stroke-width="6.875" stroke-miterlimit="8" fill-rule="evenodd"></path>
      <path d="M0 0C17.5925 1.78445 35.1852 3.56906 47.8519 8.81768 60.5185 14.0663 76 15.326 76 31.4916 76 47.6571 58.1729 89.226 47.8519 
      105.812 37.5309 122.397 22.0495 126.386 14.0741 131.005 6.09878 135.624 0 133.524 0 133.524L0 133.524" fill="#eeeeee" stroke-width="6.875" stroke-linejoin="round" stroke-miterlimit="10" fill-rule="evenodd" transform="matrix(-1 0 0 1 1680.5 1342.5)"></path>
      <path d="M1678.5 1342.5C1696.09 1344.28 1713.69 1346.07 1726.35 1351.32 1739.02 1356.57 1754.5 1357.83 1754.5 1373.99 1754.5 1390.16 
      1736.67 1431.73 1726.35 1448.31 1716.03 1464.9 1700.55 1468.89 1692.57 1473.5 1684.6 1478.12 1678.5 1476.02 1678.5 1476.02L1678.5 
      1476.02" fill="#eeeeee" stroke-width="6.875" stroke-linejoin="round" stroke-miterlimit="10" fill-rule="evenodd"></path>
      <path d="M86.3589 4.0433C77.4451 12.7613 63.4666 41.379 51.1087 59.7626 38.7509 78.1462 20.7208 101.268 12.2121 114.345 3.70342 
      127.422 0.867136 131.212 0.0568519 138.225-0.753575 145.237 7.34998 156.419 7.34998 156.419L7.34998 156.419C12.8198 158.503 24.7725 
      168.169 40.1691 168.927 55.5656 169.685 84.9408 164.379 99.7296 160.967 114.518 157.556 122.622 154.523 128.902 148.459 135.182 
      142.394 135.588 132.728 137.411 124.579 139.234 116.43 140.45 109.607 139.842 99.5622 139.234 89.5176 136.195 75.3035 133.764 64.3111 
      131.333 53.319 130.118 43.0848 125.256 33.6086 120.393 24.1325 110.669 12.1928 104.592 7.45469 98.5142 2.71662 95.2728-4.67468 
      86.3589 4.0433Z" fill="#eeeeee" stroke-width="6.875" stroke-linejoin="round" stroke-miterlimit="10" fill-rule="evenodd" transform="matrix(-1 0 0 1 1634.5 1392.5)"></path><path d="M1831.82 1598.35C1833.9 1603.4 1825.73 1619.21 1820.72 1627.01 1815.71 1634.81 
      1810.42 1638.8 1801.75 1645.14 1793.07 1651.49 1780.47 1659.22 1768.67 1665.06 1756.88 1670.89 1741.06 1677.69 1730.98 1680.17 
      1720.91 1682.66 1714.85 1681.69 1708.2 1679.97 1701.56 1678.25 1692.15 1677.77 1691.11 1669.84 1690.06 1661.9 1690.05 1643.6 1701.93 
      1632.37 1713.81 1621.15 1744.67 1608.43 1762.39 1602.48 1780.11 1596.54 1797.15 1596.89 1808.22 1596.71 1819.3 1596.53 1829.74 1593.3 
      1831.82 1598.35Z" fill="#eeeeee" stroke-width="6.875" stroke-linejoin="round" stroke-miterlimit="10" fill-rule="evenodd"></path>
      <path d="M124.67 1.69175C127.823 6.15232 123.371 23.3867 120.218 32.1052 117.065 40.8238 112.799 45.8927 105.751 54.0029 98.7024 
      62.1131 88.1298 72.4537 77.9284 80.7666 67.7269 89.0795 53.8157 99.2174 44.5417 103.881 35.2676 108.544 29.1468 108.95 22.284 108.747 
      15.4212 108.544 6.14722 110.166 3.36495 102.664 0.582689 95.1623-3.49784 77.3197 5.59069 63.7351 14.6792 50.1505 41.9449 30.8886 
      57.8964 21.1564 73.8477 11.4241 90.5412 7.97713 101.299 5.34136 112.057 2.7056 121.517-2.76882 124.67 1.69175Z" fill="#eeeeee" stroke-width="6.875" stroke-linejoin="round" stroke-miterlimit="10" fill-rule="evenodd" transform="matrix(-0.974992 0.222238 0.222238 
      0.974992 1641.39 1568.99)"></path><path d="M1805.86 1397.54C1796.94 1406.26 1782.97 1434.88 1770.61 1453.26 1758.25 1471.65 1740.22 1494.77 
      1731.71 1507.84 1723.2 1520.92 1720.37 1524.71 1719.56 1531.72 1718.75 1538.74 1726.85 1549.92 1726.85 1549.92L1726.85 
      1549.92C1732.32 1552 1744.27 1561.67 1759.67 1562.43 1775.07 1563.18 1804.44 1557.88 1819.23 1554.47 1834.02 1551.06 1842.12 
      1548.02 1848.4 1541.96 1854.68 1535.89 1855.09 1526.23 1856.91 1518.08 1858.73 1509.93 1859.95 1503.11 1859.34 1493.06 1858.73 
      1483.02 1855.7 1468.8 1853.26 1457.81 1850.83 1446.82 1849.62 1436.58 1844.76 1427.11 1839.89 1417.63 1830.17 1405.69 1824.09 
      1400.95 1818.01 1396.22 1814.77 1388.83 1805.86 1397.54Z" fill="#eeeeee" stroke-width="6.875" stroke-linejoin="round" stroke-miterlimit="10" fill-rule="evenodd"></path>
    </g>
  </symbol>

  <!-- 黒「＞」 -->
  <symbol id="aperture-dark" fill="none" stroke="currentColor" stroke-linecap="round" stroke-linejoin="round" stroke-width="2" viewBox="0 0 600 600">
    <g transform="translate(-1416 -1210)"><path d="M1436 1520C1436 1397.39 1543.9 1298 1677 1298 1810.1 1298 1918 1397.39 1918 1520 1918 1642.61 1810.1 1742 1677 1742 1543.9 1742 1436 1642.61 1436 1520Z" stroke="#444444" stroke-width="40.1042" stroke-miterlimit="8" fill="none" fill-rule="evenodd"></path><path d="M1546.5 1333.86C1546.59 1267.31 1605.31 1213.42 1677.66 1213.5 1749.94 1213.58 1808.5 1267.51 1808.5 1334Z" stroke="#444444" stroke-width="6.875" stroke-miterlimit="8" fill="#444444" fill-rule="evenodd"></path><path d="M0 0C17.5925 1.78445 35.1852 3.56906 47.8519 8.81768 60.5185 14.0663 76 15.326 76 31.4916 76 47.6571 58.1729 89.226 47.8519 105.812 37.5309 122.397 22.0495 126.386 14.0741 131.005 6.09878 135.624 0 133.524 0 133.524L0 133.524" stroke="#444444" stroke-width="6.875" stroke-linejoin="round" stroke-miterlimit="10" fill="#444444" fill-rule="evenodd" transform="matrix(-1 0 0 1 1680.5 1342.5)"></path><path d="M1678.5 1342.5C1696.09 1344.28 1713.69 1346.07 1726.35 1351.32 1739.02 1356.57 1754.5 1357.83 1754.5 1373.99 1754.5 1390.16 1736.67 1431.73 1726.35 1448.31 1716.03 1464.9 1700.55 1468.89 1692.57 1473.5 1684.6 1478.12 1678.5 1476.02 1678.5 1476.02L1678.5 1476.02" stroke="#444444" stroke-width="6.875" stroke-linejoin="round" stroke-miterlimit="10" fill="#444444" fill-rule="evenodd"></path><path d="M86.3589 4.0433C77.4451 12.7613 63.4666 41.379 51.1087 59.7626 38.7509 78.1462 20.7208 101.268 12.2121 114.345 3.70342 127.422 0.867136 131.212 0.0568519 138.225-0.753575 145.237 7.34998 156.419 7.34998 156.419L7.34998 156.419C12.8198 158.503 24.7725 168.169 40.1691 168.927 55.5656 169.685 84.9408 164.379 99.7296 160.967 114.518 157.556 122.622 154.523 128.902 148.459 135.182 142.394 135.588 132.728 137.411 124.579 139.234 116.43 140.45 109.607 139.842 99.5622 139.234 89.5176 136.195 75.3035 133.764 64.3111 131.333 53.319 130.118 43.0848 125.256 33.6086 120.393 24.1325 110.669 12.1928 104.592 7.45469 98.5142 2.71662 95.2728-4.67468 86.3589 4.0433Z" stroke="#444444" stroke-width="6.875" stroke-linejoin="round" stroke-miterlimit="10" fill="#444444" fill-rule="evenodd" transform="matrix(-1 0 0 1 1634.5 1392.5)"></path><path d="M1831.82 1598.35C1833.9 1603.4 1825.73 1619.21 1820.72 1627.01 1815.71 1634.81 1810.42 1638.8 1801.75 1645.14 1793.07 1651.49 1780.47 1659.22 1768.67 1665.06 1756.88 1670.89 1741.06 1677.69 1730.98 1680.17 1720.91 1682.66 1714.85 1681.69 1708.2 1679.97 1701.56 1678.25 1692.15 1677.77 1691.11 1669.84 1690.06 1661.9 1690.05 1643.6 1701.93 1632.37 1713.81 1621.15 1744.67 1608.43 1762.39 1602.48 1780.11 1596.54 1797.15 1596.89 1808.22 1596.71 1819.3 1596.53 1829.74 1593.3 1831.82 1598.35Z" stroke="#444444" stroke-width="6.875" stroke-linejoin="round" stroke-miterlimit="10" fill="#444444" fill-rule="evenodd"></path><path d="M124.67 1.69175C127.823 6.15232 123.371 23.3867 120.218 32.1052 117.065 40.8238 112.799 45.8927 105.751 54.0029 98.7024 62.1131 88.1298 72.4537 77.9284 80.7666 67.7269 89.0795 53.8157 99.2174 44.5417 103.881 35.2676 108.544 29.1468 108.95 22.284 108.747 15.4212 108.544 6.14722 110.166 3.36495 102.664 0.582689 95.1623-3.49784 77.3197 5.59069 63.7351 14.6792 50.1505 41.9449 30.8886 57.8964 21.1564 73.8477 11.4241 90.5412 7.97713 101.299 5.34136 112.057 2.7056 121.517-2.76882 124.67 1.69175Z" stroke="#444444" stroke-width="6.875" stroke-linejoin="round" stroke-miterlimit="10" fill="#444444" fill-rule="evenodd" transform="matrix(-0.974992 0.222238 0.222238 0.974992 1641.39 1568.99)"></path><path d="M1805.86 1397.54C1796.94 1406.26 1782.97 1434.88 1770.61 1453.26 1758.25 1471.65 1740.22 1494.77 1731.71 1507.84 1723.2 1520.92 1720.37 1524.71 1719.56 1531.72 1718.75 1538.74 1726.85 1549.92 1726.85 1549.92L1726.85 1549.92C1732.32 1552 1744.27 1561.67 1759.67 1562.43 1775.07 1563.18 1804.44 1557.88 1819.23 1554.47 1834.02 1551.06 1842.12 1548.02 1848.4 1541.96 1854.68 1535.89 1855.09 1526.23 1856.91 1518.08 1858.73 1509.93 1859.95 1503.11 1859.34 1493.06 1858.73 1483.02 1855.7 1468.8 1853.26 1457.81 1850.83 1446.82 1849.62 1436.58 1844.76 1427.11 1839.89 1417.63 1830.17 1405.69 1824.09 1400.95 1818.01 1396.22 1814.77 1388.83 1805.86 1397.54Z" stroke="#444444" stroke-width="6.875" stroke-linejoin="round" stroke-miterlimit="10" fill="#444444" fill-rule="evenodd"></path></g>
  </symbol>
  <!-- 白「＞」 -->
  <symbol id="chevron-right" viewBox="0 0 16 16">
    <path fill-rule="evenodd" d="M4.646 1.646a.5.5 0 0 1 .708 0l6 6a.5.5 0 0 1 0 .708l-6 6a.5.5 0 0 1-.708-.708L10.293 8 4.646 2.354a.5.5 0 0 1 0-.708z"></path>
  </symbol>

</svg>